<?xml version="1.0" encoding="UTF-8"?>
<svg width="18px" height="20px" viewBox="0 0 18 20" version="1.1" xmlns="http://www.w3.org/2000/svg" xmlns:xlink="http://www.w3.org/1999/xlink">
    <!-- Generator: Sketch 46.2 (44496) - http://www.bohemiancoding.com/sketch -->
    <title>signin1</title>
    <desc>Created with Sketch.</desc>
    <defs></defs>
    <g id="Page-1" stroke="none" stroke-width="1" fill="none" fill-rule="evenodd">
        <g id="个人中心-未充值" transform="translate(-1132.000000, -20.000000)" stroke-width="0.5" stroke="#FFFFFF" fill="#FFFFFF">
            <g id="Group-3">
                <g id="Page-1" transform="translate(1132.000000, 20.000000)">
                    <path d="M2.57402561,17.9866141 C2.57402561,18.3519996 2.25521575,18.6513516 1.88252253,18.6513516 C1.51431958,18.6513516 1.2,18.3519996 1.2,17.9822118 C1.2,16.7627927 1.71189189,15.8471278 2.41686582,15.1691836 C3.40023709,14.2491165 4.7742627,13.8485131 5.59149362,13.7736751 C5.75314369,13.7560662 5.90132293,13.6900326 6.00459936,13.5975857 C6.06746328,13.5359544 6.1078758,13.4567142 6.12583692,13.3774739 C5.48372691,12.8580102 5.18287816,12.1448481 4.93591277,11.5373397 C4.81018494,11.2423899 4.70690851,10.9914625 4.64404459,10.925429 L4.63057375,10.9210268 L4.62608347,10.9166245 L4.62159319,10.9166245 L4.62159319,10.9122223 C4.33421528,10.6480882 3.9300901,10.1638423 3.71904695,9.61356294 C3.50800381,9.06328356 3.45412045,8.45577512 3.77742059,7.9010935 C3.60229968,7.3992387 3.51698436,6.84455708 3.51698436,6.27226652 C3.50800381,5.5414955 3.62475108,4.80192001 3.85824563,4.12837804 L3.88518731,4.07114899 C4.21746801,3.12026621 4.78324326,2.42471307 5.50168803,1.94927168 C6.26952587,1.43421018 7.22595546,1.20089172 8.29464205,1.17888054 C8.69427695,1.17447831 9.2376008,1.16567384 9.77194409,1.26252301 C10.3781319,1.37257888 10.9528877,1.59709287 11.2986392,2.08133873 C12.0215743,2.01530521 12.6502134,2.40710413 13.1396539,2.97939469 C13.7413514,3.66614336 14.1769086,4.66985296 14.2667142,5.25975246 C14.3475392,5.69997596 14.3475392,6.15340618 14.2756947,6.6464565 C14.2307919,7.02064649 14.1409863,7.43005435 14.024239,7.8262555 C14.3969323,8.39854606 14.3475392,9.04127239 14.1320058,9.60035624 C13.9164723,10.1550379 13.5213277,10.6480882 13.2294595,10.9034178 L13.220479,10.9166245 L13.2070081,10.925429 L13.2070081,10.925429 C13.1351636,10.9914625 13.0273969,11.2467922 12.9061594,11.5373397 C12.6681745,12.1404459 12.3807966,12.8404013 11.7521575,13.3510605 C11.7656283,13.4435075 11.8195117,13.5271499 11.8868659,13.5975857 C11.9811617,13.6900326 12.1383215,13.7560662 12.2999716,13.7736751 C13.1127122,13.8485131 14.4822476,14.2491165 15.4656189,15.1691836 C16.1661025,15.8427256 16.6824847,16.7627927 16.6824847,17.9866141 C16.6824847,18.3519996 16.3681651,18.6513516 15.9999621,18.6513516 C15.6227786,18.6513516 15.3174396,18.3519996 15.3174396,17.9822118 C15.3174396,17.1766028 14.9806686,16.5867033 14.5181698,16.1464798 C13.7952348,15.4641334 12.7804315,15.1559769 12.1787341,15.1163568 C11.6892936,15.0679322 11.2447559,14.8654294 10.9124752,14.5440662 C10.5397819,14.1918874 10.0189095,12.8580102 10.7059223,12.4353956 C11.1818919,12.1536526 11.4378379,11.5461441 11.6399005,11.0354849 C11.8284922,10.5820547 11.9811617,10.1902557 12.2954813,9.91731717 L12.2954813,9.92612164 L12.2999716,9.91731717 C12.4706022,9.76764117 12.7220579,9.46388695 12.8477857,9.13371932 C12.9465719,8.88719416 12.964533,8.63626676 12.7983927,8.46457959 L12.8028829,8.46457959 C12.6232718,8.27088125 12.5604078,7.91870244 12.6457232,7.67217728 C12.7804315,7.24956271 12.8747274,6.85336155 12.9196302,6.47476934 C12.964533,6.11378606 12.9735136,5.78361843 12.9151399,5.44904856 C12.8612566,5.05284741 12.546937,4.35289203 12.1068896,3.846635 C11.8689047,3.57809866 11.6174491,3.38440031 11.4019157,3.41961819 C11.1639308,3.45043384 10.9304363,3.41961819 10.7149028,3.32276902 C10.5308014,3.23032209 10.364661,3.09825503 10.2434235,2.92216563 L10.1985207,2.87374104 C10.0952442,2.72406505 9.83031773,2.62721588 9.52497871,2.57438906 C9.12085353,2.5039533 8.66284499,2.51275777 8.32158373,2.52156224 C7.51333337,2.53036671 6.80386916,2.69324941 6.25605503,3.06303715 C5.78008537,3.37999808 5.40739215,3.846635 5.1738976,4.51137249 L5.1514462,4.56419931 C4.97183501,5.09246752 4.86855858,5.67796479 4.87753914,6.25465758 C4.89100998,6.76091462 4.97183501,7.25396494 5.14246564,7.66337281 C5.2188004,7.79543986 5.25023236,7.95832256 5.21431012,8.10359631 C5.14246564,8.53941759 4.78324326,8.56142876 4.99877669,9.13371932 C5.12001425,9.45068025 5.36697963,9.75003223 5.53761026,9.90411046 L5.55557138,9.93492611 L5.56455194,9.93492611 C5.86091041,10.2034624 6.02256048,10.5908591 6.20217167,11.0354849 C6.4177051,11.5461441 6.66916077,12.1624571 7.1496207,12.4530046 C7.36066385,12.5586582 7.50884309,12.7743677 7.50884309,13.0473063 C7.50884309,13.6195969 7.41005693,14.1126472 6.97000951,14.5440662 C6.65119965,14.8654294 6.19319111,15.0679322 5.69477006,15.1163568 C5.09756285,15.1559769 4.09174018,15.4641334 3.37329541,16.1464798 C2.90181604,16.5867033 2.57402561,17.1766028 2.57402561,17.9866141" id="Fill-1"></path>
                </g>
            </g>
        </g>
    </g>
</svg>